<mxfile host="app.diagrams.net" modified="2024-06-09T17:55:00.229Z" agent="Mozilla/5.0 (Macintosh; Intel Mac OS X 10_15_7) AppleWebKit/605.1.15 (KHTML, like Gecko) Version/17.1 Safari/605.1.15" etag="2HC6HbBxbfHkJK7Ne8v7" version="24.5.2" type="github">
  <diagram name="Page-1" id="yuvdnFN4CmruhH1FIkKl">
    <mxGraphModel dx="1356" dy="1514" grid="1" gridSize="10" guides="1" tooltips="1" connect="1" arrows="1" fold="1" page="1" pageScale="1" pageWidth="1600" pageHeight="900" math="0" shadow="0">
      <root>
        <mxCell id="0" />
        <mxCell id="1" parent="0" />
        <mxCell id="zg4am7xlESdSiOFU0udA-6" value="" style="group" vertex="1" connectable="0" parent="1">
          <mxGeometry x="60" y="120" width="320" height="240" as="geometry" />
        </mxCell>
        <mxCell id="zg4am7xlESdSiOFU0udA-4" value="&lt;font style=&quot;font-size: 20px;&quot;&gt;GraphMertEncoder&lt;/font&gt;" style="rounded=1;whiteSpace=wrap;html=1;labelPosition=center;verticalLabelPosition=top;align=center;verticalAlign=bottom;fontSize=18;fillColor=#f5f5f5;fontColor=#333333;strokeColor=#666666;container=1;" vertex="1" parent="zg4am7xlESdSiOFU0udA-6">
          <mxGeometry width="320" height="240" as="geometry" />
        </mxCell>
        <mxCell id="zg4am7xlESdSiOFU0udA-1" value="&lt;font style=&quot;font-size: 18px;&quot;&gt;Graph Node feature&lt;/font&gt;&lt;div&gt;&lt;i&gt;&lt;font style=&quot;font-size: 16px;&quot;&gt;node encodings&lt;/font&gt;&lt;/i&gt;&lt;/div&gt;" style="rounded=0;whiteSpace=wrap;html=1;verticalAlign=top;fillColor=#fff2cc;strokeColor=#d6b656;" vertex="1" parent="zg4am7xlESdSiOFU0udA-6">
          <mxGeometry x="40" y="20" width="240" height="130" as="geometry" />
        </mxCell>
        <mxCell id="zg4am7xlESdSiOFU0udA-2" value="&lt;font style=&quot;font-size: 18px;&quot;&gt;Graph attention bias&lt;/font&gt;&lt;div&gt;&lt;font size=&quot;1&quot;&gt;&lt;i style=&quot;font-size: 16px;&quot;&gt;spatial position / edge encodings&lt;/i&gt;&lt;/font&gt;&lt;/div&gt;" style="rounded=0;whiteSpace=wrap;html=1;fillColor=#ffe6cc;strokeColor=#d79b00;" vertex="1" parent="zg4am7xlESdSiOFU0udA-6">
          <mxGeometry x="38" y="165.00342857142857" width="250" height="60" as="geometry" />
        </mxCell>
        <mxCell id="zg4am7xlESdSiOFU0udA-3" value="&lt;font style=&quot;font-size: 18px;&quot;&gt;Atom encoder&lt;/font&gt;&lt;div&gt;&lt;font style=&quot;font-size: 16px;&quot;&gt;&lt;i&gt;vocabulary encodings&lt;/i&gt;&lt;/font&gt;&lt;/div&gt;" style="rounded=0;whiteSpace=wrap;html=1;fillColor=#dae8fc;strokeColor=#6c8ebf;" vertex="1" parent="zg4am7xlESdSiOFU0udA-6">
          <mxGeometry x="76" y="76" width="170" height="64" as="geometry" />
        </mxCell>
        <mxCell id="zg4am7xlESdSiOFU0udA-8" value="" style="group" vertex="1" connectable="0" parent="1">
          <mxGeometry x="480" y="90" width="380" height="270" as="geometry" />
        </mxCell>
        <mxCell id="zg4am7xlESdSiOFU0udA-9" value="&lt;font style=&quot;font-size: 20px;&quot;&gt;GraphMertEncoder&lt;/font&gt;" style="rounded=1;whiteSpace=wrap;html=1;labelPosition=center;verticalLabelPosition=top;align=center;verticalAlign=bottom;fontSize=18;fillColor=#f5f5f5;fontColor=#333333;strokeColor=#666666;container=1;" vertex="1" parent="zg4am7xlESdSiOFU0udA-8">
          <mxGeometry width="379.99999999999994" height="270" as="geometry" />
        </mxCell>
        <mxCell id="zg4am7xlESdSiOFU0udA-10" value="&lt;font style=&quot;font-size: 18px;&quot;&gt;Graph Node feature&lt;/font&gt;" style="rounded=0;whiteSpace=wrap;html=1;verticalAlign=top;fillColor=#fff2cc;strokeColor=#d6b656;" vertex="1" parent="zg4am7xlESdSiOFU0udA-9">
          <mxGeometry x="210" y="11.25" width="146.26" height="108.75" as="geometry" />
        </mxCell>
        <mxCell id="zg4am7xlESdSiOFU0udA-13" style="rounded=0;orthogonalLoop=1;jettySize=auto;html=1;exitX=1;exitY=0.5;exitDx=0;exitDy=0;entryX=0;entryY=0.5;entryDx=0;entryDy=0;strokeWidth=2;" edge="1" parent="zg4am7xlESdSiOFU0udA-9" source="zg4am7xlESdSiOFU0udA-12" target="zg4am7xlESdSiOFU0udA-10">
          <mxGeometry relative="1" as="geometry" />
        </mxCell>
        <mxCell id="zg4am7xlESdSiOFU0udA-12" value="&lt;font style=&quot;font-size: 18px;&quot;&gt;Atom encoder&lt;/font&gt;&lt;div&gt;&lt;font size=&quot;4&quot;&gt;&lt;i&gt;(optional)&lt;/i&gt;&lt;/font&gt;&lt;/div&gt;" style="rounded=0;whiteSpace=wrap;html=1;fillColor=#dae8fc;strokeColor=#6c8ebf;" vertex="1" parent="zg4am7xlESdSiOFU0udA-9">
          <mxGeometry x="18.33" y="98.4375" width="131.67" height="70.3125" as="geometry" />
        </mxCell>
        <mxCell id="zg4am7xlESdSiOFU0udA-11" value="&lt;font style=&quot;font-size: 18px;&quot;&gt;Graph attention bias&lt;/font&gt;" style="rounded=0;whiteSpace=wrap;html=1;fillColor=#ffe6cc;strokeColor=#d79b00;verticalAlign=top;" vertex="1" parent="zg4am7xlESdSiOFU0udA-9">
          <mxGeometry x="210" y="130" width="155.76" height="119.23" as="geometry" />
        </mxCell>
        <mxCell id="zg4am7xlESdSiOFU0udA-14" style="rounded=0;orthogonalLoop=1;jettySize=auto;html=1;exitX=1;exitY=0.5;exitDx=0;exitDy=0;entryX=0;entryY=0.5;entryDx=0;entryDy=0;dashed=1;strokeWidth=2;" edge="1" parent="zg4am7xlESdSiOFU0udA-9" source="zg4am7xlESdSiOFU0udA-12" target="zg4am7xlESdSiOFU0udA-11">
          <mxGeometry relative="1" as="geometry" />
        </mxCell>
        <mxCell id="zg4am7xlESdSiOFU0udA-15" value="&lt;font style=&quot;font-size: 18px;&quot;&gt;Atom encoder&lt;/font&gt;" style="rounded=0;whiteSpace=wrap;html=1;fillColor=#dae8fc;strokeColor=#6c8ebf;" vertex="1" parent="zg4am7xlESdSiOFU0udA-9">
          <mxGeometry x="218.04000000000002" y="69.75" width="131.67" height="33.75" as="geometry" />
        </mxCell>
        <mxCell id="zg4am7xlESdSiOFU0udA-16" value="&lt;font style=&quot;font-size: 18px;&quot;&gt;Atom encoder&lt;/font&gt;&lt;div&gt;&lt;font style=&quot;font-size: 18px;&quot;&gt;(&lt;i&gt;optional&lt;/i&gt;)&lt;/font&gt;&lt;/div&gt;" style="rounded=0;whiteSpace=wrap;html=1;fillColor=#dae8fc;strokeColor=#6c8ebf;" vertex="1" parent="zg4am7xlESdSiOFU0udA-9">
          <mxGeometry x="222.05" y="183.25346153846155" width="131.67" height="57.9773076923077" as="geometry" />
        </mxCell>
        <mxCell id="zg4am7xlESdSiOFU0udA-19" value="&lt;font style=&quot;font-size: 16px;&quot;&gt;Optional: if relationships are created, then atom encoder is created&lt;/font&gt;" style="text;html=1;align=center;verticalAlign=middle;whiteSpace=wrap;rounded=0;" vertex="1" parent="1">
          <mxGeometry x="510" y="360" width="320" height="70" as="geometry" />
        </mxCell>
        <mxCell id="zg4am7xlESdSiOFU0udA-30" value="" style="rounded=0;whiteSpace=wrap;html=1;rotation=-90;" vertex="1" parent="1">
          <mxGeometry x="335" y="521" width="130" height="39" as="geometry" />
        </mxCell>
        <mxCell id="zg4am7xlESdSiOFU0udA-31" value="" style="rounded=0;whiteSpace=wrap;html=1;rotation=-90;" vertex="1" parent="1">
          <mxGeometry x="395" y="521" width="130" height="39" as="geometry" />
        </mxCell>
        <mxCell id="zg4am7xlESdSiOFU0udA-32" value="" style="rounded=0;whiteSpace=wrap;html=1;rotation=-90;" vertex="1" parent="1">
          <mxGeometry x="455" y="521" width="130" height="39" as="geometry" />
        </mxCell>
        <mxCell id="zg4am7xlESdSiOFU0udA-33" value="" style="rounded=0;whiteSpace=wrap;html=1;rotation=-90;" vertex="1" parent="1">
          <mxGeometry x="515" y="521" width="130" height="39" as="geometry" />
        </mxCell>
        <mxCell id="zg4am7xlESdSiOFU0udA-36" value="&lt;font style=&quot;font-size: 18px;&quot;&gt;Atom encoder&lt;/font&gt;" style="rounded=0;whiteSpace=wrap;html=1;fillColor=#dae8fc;strokeColor=#6c8ebf;" vertex="1" parent="1">
          <mxGeometry x="247" y="540" width="100" height="43.75" as="geometry" />
        </mxCell>
        <mxCell id="zg4am7xlESdSiOFU0udA-37" value="" style="group" vertex="1" connectable="0" parent="1">
          <mxGeometry x="55" y="540" width="170" height="90" as="geometry" />
        </mxCell>
        <mxCell id="zg4am7xlESdSiOFU0udA-24" value="" style="group;fillColor=#f5f5f5;fontColor=#333333;strokeColor=#666666;" vertex="1" connectable="0" parent="zg4am7xlESdSiOFU0udA-37">
          <mxGeometry x="5" width="160" height="41" as="geometry" />
        </mxCell>
        <mxCell id="zg4am7xlESdSiOFU0udA-20" value="&lt;font style=&quot;font-size: 16px;&quot;&gt;UMLS realtionship&lt;/font&gt;" style="rounded=0;whiteSpace=wrap;html=1;labelPosition=center;verticalLabelPosition=top;align=center;verticalAlign=bottom;" vertex="1" parent="zg4am7xlESdSiOFU0udA-24">
          <mxGeometry width="160" height="40" as="geometry" />
        </mxCell>
        <mxCell id="zg4am7xlESdSiOFU0udA-21" value="" style="endArrow=none;html=1;rounded=0;" edge="1" parent="zg4am7xlESdSiOFU0udA-24">
          <mxGeometry width="50" height="50" relative="1" as="geometry">
            <mxPoint x="40" y="40" as="sourcePoint" />
            <mxPoint x="40" as="targetPoint" />
          </mxGeometry>
        </mxCell>
        <mxCell id="zg4am7xlESdSiOFU0udA-22" value="" style="endArrow=none;html=1;rounded=0;" edge="1" parent="zg4am7xlESdSiOFU0udA-24">
          <mxGeometry width="50" height="50" relative="1" as="geometry">
            <mxPoint x="81" y="41" as="sourcePoint" />
            <mxPoint x="81" y="1" as="targetPoint" />
          </mxGeometry>
        </mxCell>
        <mxCell id="zg4am7xlESdSiOFU0udA-23" value="" style="endArrow=none;html=1;rounded=0;" edge="1" parent="zg4am7xlESdSiOFU0udA-24">
          <mxGeometry width="50" height="50" relative="1" as="geometry">
            <mxPoint x="121" y="40" as="sourcePoint" />
            <mxPoint x="121" as="targetPoint" />
          </mxGeometry>
        </mxCell>
        <mxCell id="zg4am7xlESdSiOFU0udA-34" value="&lt;font style=&quot;font-size: 14px;&quot;&gt;token ids: 4 per one relationship&lt;/font&gt;" style="text;html=1;align=center;verticalAlign=middle;whiteSpace=wrap;rounded=0;fontSize=14;" vertex="1" parent="zg4am7xlESdSiOFU0udA-37">
          <mxGeometry y="49" width="170" height="30" as="geometry" />
        </mxCell>
        <mxCell id="zg4am7xlESdSiOFU0udA-35" value="" style="endArrow=classic;html=1;rounded=0;strokeWidth=3;" edge="1" parent="1">
          <mxGeometry width="50" height="50" relative="1" as="geometry">
            <mxPoint x="230" y="562" as="sourcePoint" />
            <mxPoint x="370" y="562" as="targetPoint" />
          </mxGeometry>
        </mxCell>
        <mxCell id="zg4am7xlESdSiOFU0udA-40" value="&lt;font style=&quot;font-size: 15px;&quot;&gt;Embeddings: hidden dim&lt;/font&gt;" style="text;html=1;align=center;verticalAlign=middle;whiteSpace=wrap;rounded=0;" vertex="1" parent="1">
          <mxGeometry x="400" y="440" width="180" height="30" as="geometry" />
        </mxCell>
        <mxCell id="zg4am7xlESdSiOFU0udA-41" value="" style="shape=curlyBracket;whiteSpace=wrap;html=1;rounded=1;labelPosition=center;verticalLabelPosition=bottom;align=center;verticalAlign=top;rotation=-90;" vertex="1" parent="1">
          <mxGeometry x="480" y="514" width="20" height="220" as="geometry" />
        </mxCell>
        <mxCell id="zg4am7xlESdSiOFU0udA-42" value="&lt;font style=&quot;font-size: 14px;&quot;&gt;Sum&lt;/font&gt;" style="text;html=1;align=center;verticalAlign=middle;whiteSpace=wrap;rounded=0;" vertex="1" parent="1">
          <mxGeometry x="460" y="636" width="60" height="30" as="geometry" />
        </mxCell>
        <mxCell id="zg4am7xlESdSiOFU0udA-44" value="" style="rounded=0;whiteSpace=wrap;html=1;rotation=-90;fillColor=#d5e8d4;strokeColor=#82b366;" vertex="1" parent="1">
          <mxGeometry x="615.5" y="522.5" width="131" height="39" as="geometry" />
        </mxCell>
        <mxCell id="zg4am7xlESdSiOFU0udA-45" value="" style="shape=image;html=1;verticalAlign=top;verticalLabelPosition=bottom;labelBackgroundColor=#ffffff;imageAspect=0;aspect=fixed;image=https://cdn2.iconfinder.com/data/icons/css-vol-2/24/math-equal-128.png" vertex="1" parent="1">
          <mxGeometry x="607" y="518" width="50" height="50" as="geometry" />
        </mxCell>
        <mxCell id="zg4am7xlESdSiOFU0udA-46" value="" style="rounded=0;whiteSpace=wrap;html=1;rotation=-90;fillColor=#d5e8d4;strokeColor=#82b366;" vertex="1" parent="1">
          <mxGeometry x="210" y="692" width="90" height="39" as="geometry" />
        </mxCell>
        <mxCell id="zg4am7xlESdSiOFU0udA-48" value="" style="endArrow=classic;html=1;rounded=0;strokeWidth=3;" edge="1" parent="1">
          <mxGeometry width="50" height="50" relative="1" as="geometry">
            <mxPoint x="130" y="709" as="sourcePoint" />
            <mxPoint x="225" y="708" as="targetPoint" />
          </mxGeometry>
        </mxCell>
        <mxCell id="zg4am7xlESdSiOFU0udA-50" value="&lt;font style=&quot;font-size: 16px;&quot;&gt;Project&lt;/font&gt;" style="edgeLabel;html=1;align=center;verticalAlign=bottom;resizable=0;points=[];labelPosition=center;verticalLabelPosition=top;fontSize=14;" vertex="1" connectable="0" parent="zg4am7xlESdSiOFU0udA-48">
          <mxGeometry x="0.3898" y="1" relative="1" as="geometry">
            <mxPoint x="-21" y="-3" as="offset" />
          </mxGeometry>
        </mxCell>
        <mxCell id="zg4am7xlESdSiOFU0udA-51" value="" style="rounded=0;whiteSpace=wrap;html=1;rotation=-90;fillColor=#d5e8d4;strokeColor=#82b366;" vertex="1" parent="1">
          <mxGeometry x="34" y="689" width="131" height="39" as="geometry" />
        </mxCell>
      </root>
    </mxGraphModel>
  </diagram>
</mxfile>
